<svg width="156" height="44" viewBox="0 0 156 44" fill="none" xmlns="http://www.w3.org/2000/svg">
<path d="M51.5392 11.0852C51.5402 11.4138 51.7599 11.6079 52.1983 11.6674C52.6489 11.7148 53.1055 11.7681 53.5683 11.8276C54.031 11.8748 54.5425 11.9341 55.1027 12.0054C55.675 12.0645 56.2047 12.1299 56.6919 12.2014C57.179 12.273 57.6723 12.3688 58.1718 12.489C58.6834 12.597 59.1222 12.7904 59.4883 13.0693C59.8543 13.336 60.1233 13.7125 60.2952 14.1989C60.4671 14.6731 60.554 15.2267 60.556 15.8597C60.5595 17.0162 60.3127 17.9056 59.8155 18.528C59.3305 19.1381 58.65 19.548 57.7742 19.7577C56.9105 19.9551 55.8274 20.0558 54.5249 20.0598C53.1858 20.0639 52.0595 19.97 51.1459 19.7781C50.2323 19.5739 49.452 19.1807 48.805 18.5984C48.1702 18.016 47.8506 16.9945 47.8461 15.5337L51.1876 15.5234C51.1892 16.0225 51.4643 16.4173 52.013 16.7077C52.5738 16.986 53.3716 17.1235 54.4063 17.1204C55.514 17.1169 56.2501 16.9929 56.6146 16.7484C56.979 16.5038 57.1608 16.2293 57.1598 15.925C57.159 15.6693 56.9698 15.4934 56.5922 15.3972C56.2267 15.3009 55.7577 15.205 55.1853 15.1094C54.625 15.0015 54.0647 14.918 53.5046 14.8589C52.9566 14.7997 52.4269 14.7466 51.9155 14.6995C51.4162 14.6401 50.9107 14.5382 50.399 14.3937C49.8872 14.2492 49.4423 14.0558 49.0642 13.8135C48.6861 13.559 48.3867 13.1887 48.1661 12.7024C47.9454 12.204 47.8342 11.6565 47.8323 11.0601C47.8293 10.0619 48.0459 9.27602 48.4824 8.70253C48.9189 8.11687 49.6176 7.70692 50.5785 7.47267C51.5517 7.23838 52.7382 7.11908 54.1381 7.11477C55.5745 7.11035 56.707 7.22251 57.5355 7.45125C58.3639 7.67999 59.0652 8.10389 59.6393 8.72296C60.2133 9.32986 60.5021 10.2298 60.5058 11.4228L57.2556 11.4328C57.2544 11.0554 56.9856 10.7458 56.4493 10.504C55.9129 10.2622 55.1761 10.1427 54.2387 10.1456C53.0944 10.1491 52.3582 10.2366 52.0301 10.408C51.7019 10.5673 51.5383 10.793 51.5392 11.0852ZM62.0354 19.7445L61.9972 7.32795L73.0078 7.29406L73.0168 10.2156L65.7312 10.238L65.7366 12.0092L72.6753 11.9879L72.684 14.8181L65.7453 14.8395L65.7514 16.8115L73.037 16.7891L73.046 19.7106L62.0354 19.7445ZM74.4998 19.7062L74.4616 7.28958L78.1866 7.27811L78.2155 16.6819L85.8298 16.6584L85.8391 19.6713L74.4998 19.7062ZM87.303 19.6668L87.2648 7.25016L98.2754 7.21627L98.2843 10.1378L90.9987 10.1602L91.0044 11.9862L98.0891 11.9644L98.0981 14.886L91.0133 14.9078L91.028 19.6553L87.303 19.6668ZM104.533 19.6137L104.504 10.21L99.7384 10.2246L99.7291 7.21179L112.986 7.17098L112.995 10.1838L108.229 10.1985L108.258 19.6022L104.533 19.6137ZM123.318 19.5559L122.453 17.4404L116.245 17.4595L115.393 19.5803L111.358 19.5927L116.469 7.16025L122.184 7.14266L127.353 19.5435L123.318 19.5559ZM117.477 14.4428L121.221 14.4313L119.491 10.2186L119.181 10.2196L117.477 14.4428ZM128.815 19.539L128.777 7.12236L135.825 7.10066C136.909 7.09733 137.865 7.26481 138.694 7.60311C139.522 7.94141 140.114 8.4326 140.469 9.07669C140.837 9.72074 141.022 10.4993 141.024 11.4122C141.029 12.7878 140.679 13.854 139.975 14.611C139.284 15.3678 137.921 15.7494 135.888 15.7556L132.529 15.766L132.54 19.5275L128.815 19.539ZM132.52 12.8444L135.679 12.8347C136.36 12.8326 136.786 12.7035 136.956 12.4473C137.125 12.179 137.209 11.8379 137.208 11.424C137.207 10.9979 137.114 10.6574 136.931 10.4023C136.76 10.1472 136.37 10.0206 135.761 10.0224L132.511 10.0324L132.52 12.8444ZM142.51 19.4968L142.472 7.0802L153.482 7.0463L153.491 9.96785L146.206 9.99028L146.211 11.7615L153.15 11.7401L153.159 14.5704L146.22 14.5917L146.226 16.5638L153.512 16.5413L153.521 19.4629L142.51 19.4968Z" fill="black"/>
<path d="M47.785 36.0404L47.7467 23.6238L54.7767 23.6022C56.2619 23.5976 57.4251 23.8131 58.2664 24.2488C59.1198 24.6844 59.5483 25.4621 59.5517 26.5821C59.5549 27.6168 59.3138 28.3662 58.8283 28.8303C58.3549 29.2821 57.7165 29.5093 56.9131 29.5118L56.9135 29.6578C58.2283 29.6903 59.1177 29.9128 59.5815 30.3252C60.0575 30.7255 60.2968 31.3517 60.2994 32.2038C60.3032 33.4211 59.8861 34.3597 59.0482 35.0197C58.2224 35.6796 57.0183 36.012 55.4358 36.0168L47.785 36.0404ZM51.4866 28.4329L54.6272 28.4232C55.0411 28.4219 55.3269 28.3358 55.4847 28.1649C55.6545 27.9818 55.739 27.7564 55.7382 27.4885C55.7373 27.1964 55.6514 26.9654 55.4804 26.7955C55.3216 26.6134 55.0657 26.5228 54.7127 26.5239L51.4807 26.5339L51.4866 28.4329ZM51.501 33.1074L55.3355 33.0956C55.725 33.0944 56.0108 32.9961 56.1928 32.8008C56.387 32.6054 56.4836 32.3555 56.4827 32.0512C56.4818 31.7712 56.3898 31.5341 56.2066 31.3399C56.0355 31.1335 55.7491 31.0309 55.3474 31.0322L51.4946 31.044L51.501 33.1074ZM72.6731 35.9638L71.8084 33.8483L65.6001 33.8674L64.7484 35.9882L60.713 36.0006L65.824 23.5681L71.5393 23.5505L76.7085 35.9513L72.6731 35.9638ZM66.8324 30.8507L70.5757 30.8392L68.8463 26.6265L68.5359 26.6274L66.8324 30.8507ZM79.8155 35.9418L79.7865 26.538L75.0207 26.5527L75.0115 23.5399L88.268 23.499L88.2773 26.5119L83.5115 26.5266L83.5404 35.9303L79.8155 35.9418ZM94.5266 35.8965L94.4977 26.4927L89.7319 26.5074L89.7226 23.4946L102.979 23.4538L102.988 26.4666L98.2227 26.4813L98.2516 35.885L94.5266 35.8965ZM104.472 35.8659L104.434 23.4493L108.159 23.4378L108.188 32.8415L115.802 32.8181L115.811 35.831L104.472 35.8659ZM117.275 35.8264L117.237 23.4099L128.248 23.376L128.257 26.2975L120.971 26.3199L120.976 28.0911L127.915 28.0698L127.924 30.9L120.985 30.9214L120.991 32.8934L128.277 32.871L128.286 35.7926L117.275 35.8264Z" fill="black"/>
<path d="M22.1202 0.458252L25.0075 10.2882L32.1323 2.92599L30.1206 12.9718L39.8507 9.76389L33.4009 17.7241L43.5072 19.4055L34.097 23.4566L42.2643 29.642L32.0493 28.8558L36.4066 38.1283L27.727 32.6851L27.2761 42.9204L22.1202 34.067L16.9644 42.9204L16.5135 32.6851L7.83388 38.1283L12.1912 28.8558L1.97619 29.642L10.1435 23.4566L0.733252 19.4055L10.8396 17.7241L4.38982 9.76389L14.1199 12.9718L12.1082 2.92599L19.233 10.2882L22.1202 0.458252Z" fill="#00FFB7"/>
</svg>
