<svg width="320" height="137" viewBox="0 0 320 137" fill="none" xmlns="http://www.w3.org/2000/svg">
<path d="M37.7118 30.6462C37.8482 29.1462 37.4845 27.972 36.6209 27.1235C35.7573 26.2599 34.3027 25.8281 32.2573 25.8281C30.9542 25.8281 29.8633 25.9796 28.9845 26.2826C28.1209 26.5856 27.4467 27.0023 26.9618 27.5326C26.4921 28.0629 26.1967 28.6765 26.0754 29.3735C25.9391 29.919 25.9467 30.419 26.0982 30.8735C26.2648 31.3129 26.5754 31.7144 27.03 32.0781C27.4997 32.4417 28.1133 32.7675 28.8709 33.0553C29.6436 33.3432 30.5603 33.6008 31.6209 33.8281L35.2573 34.6462C37.7421 35.1917 39.8254 35.9114 41.5073 36.8053C43.2042 37.6841 44.5376 38.7296 45.5073 39.9417C46.477 41.1538 47.1133 42.5099 47.4164 44.0099C47.7345 45.5099 47.7421 47.1462 47.4391 48.919C46.9239 51.9796 45.7345 54.5705 43.8709 56.6917C42.0073 58.8129 39.5754 60.4265 36.5754 61.5326C33.5754 62.6387 30.1057 63.1917 26.1664 63.1917C22.1361 63.1917 18.7118 62.5932 15.8936 61.3962C13.0906 60.1841 11.0603 58.3356 9.80272 55.8508C8.56029 53.3508 8.25726 50.1614 8.89363 46.2826H20.8936C20.7118 47.7068 20.8633 48.9038 21.3482 49.8735C21.833 50.8432 22.6133 51.5781 23.6891 52.0781C24.7648 52.5781 26.1057 52.8281 27.7118 52.8281C29.0754 52.8281 30.2421 52.6614 31.2118 52.3281C32.1815 51.9947 32.9467 51.5326 33.5073 50.9417C34.0679 50.3508 34.4088 49.6765 34.53 48.919C34.6512 48.222 34.53 47.6008 34.1664 47.0553C33.8027 46.5099 33.1436 46.0175 32.1891 45.5781C31.2345 45.1387 29.9239 44.7371 28.2573 44.3735L23.8027 43.3735C19.8482 42.4644 16.8633 40.9644 14.8482 38.8735C12.833 36.7826 12.1209 33.919 12.7118 30.2826C13.1967 27.3129 14.4164 24.722 16.3709 22.5099C18.3406 20.2826 20.8406 18.5553 23.8709 17.3281C26.9164 16.0856 30.2876 15.4644 33.9845 15.4644C37.7421 15.4644 40.8861 16.0932 43.4164 17.3508C45.9618 18.6084 47.7876 20.3735 48.8936 22.6462C50.0148 24.919 50.3179 27.5856 49.8027 30.6462H37.7118ZM46.7732 62.6462L54.5004 16.1008H88.0459L86.3186 26.2826H65.4095L64.1368 34.2826H83.3186L81.5914 44.4644H62.4095L61.1368 52.4644H81.955L80.2277 62.6462H46.7732ZM83.3857 62.6462L91.1129 16.1008H103.749L97.7493 52.4644H116.567L114.84 62.6462H83.3857ZM116.748 62.6462L124.475 16.1008H157.203L155.475 26.2826H135.385L134.112 34.2826H152.203L150.475 44.4644H132.385L129.385 62.6462H116.748Z" fill="black"/>
<path d="M161.771 26.2826L163.498 16.1008H203.953L202.226 26.2826H188.226L182.226 62.6462H169.771L175.771 26.2826H161.771ZM203.997 62.6462H190.361L213.452 16.1008H230.724L238.361 62.6462H224.724L220.179 28.919H219.815L203.997 62.6462ZM204.543 44.2826H230.179L228.543 53.7371H202.906L204.543 44.2826ZM239.644 62.6462L247.371 16.1008H267.462C270.917 16.1008 273.826 16.7826 276.189 18.1462C278.553 19.5099 280.25 21.4265 281.28 23.8962C282.31 26.3659 282.553 29.2523 282.007 32.5553C281.462 35.919 280.25 38.8205 278.371 41.2599C276.507 43.6841 274.129 45.5553 271.235 46.8735C268.356 48.1765 265.129 48.8281 261.553 48.8281H249.553L251.189 39.0099H260.644C262.159 39.0099 263.492 38.7523 264.644 38.2371C265.795 37.7068 266.727 36.9644 267.439 36.0099C268.151 35.0402 268.613 33.8887 268.826 32.5553C269.038 31.222 268.939 30.0856 268.53 29.1462C268.136 28.1917 267.454 27.4644 266.485 26.9644C265.53 26.4493 264.31 26.1917 262.826 26.1917H258.371L252.28 62.6462H239.644ZM278.444 62.6462L286.171 16.1008H319.717L317.989 26.2826H297.08L295.807 34.2826H314.989L313.262 44.4644H294.08L292.807 52.4644H313.626L311.898 62.6462H278.444Z" fill="black"/>
<path d="M1.04379 121.847L8.77106 75.3011H28.9529C32.4983 75.3011 35.3999 75.7784 37.6574 76.7329C39.9302 77.6875 41.5362 79.0359 42.4756 80.7784C43.4302 82.5208 43.7105 84.5738 43.3165 86.9375C43.0135 88.6344 42.362 90.1875 41.362 91.5966C40.3771 92.9905 39.1271 94.1723 37.612 95.142C36.112 96.0966 34.4377 96.7556 32.5892 97.1193L32.4983 97.5738C34.4983 97.6344 36.2408 98.1344 37.7256 99.0738C39.2105 99.9981 40.3014 101.286 40.9983 102.937C41.6953 104.574 41.862 106.483 41.4983 108.665C41.0741 111.21 40.0362 113.475 38.3847 115.46C36.7332 117.445 34.5892 119.006 31.9529 120.142C29.3165 121.278 26.3165 121.847 22.9529 121.847H1.04379ZM15.4074 111.756H21.3165C23.4074 111.756 25.0514 111.354 26.2483 110.551C27.4605 109.748 28.1802 108.574 28.4074 107.028C28.5892 105.937 28.4983 105.013 28.1347 104.256C27.7711 103.498 27.1574 102.922 26.2938 102.528C25.4302 102.134 24.3468 101.937 23.0438 101.937H16.9529L15.4074 111.756ZM18.3165 94.1193H23.4983C24.5892 94.1193 25.5892 93.945 26.4983 93.5966C27.4074 93.2481 28.1574 92.7405 28.7483 92.0738C29.3392 91.4072 29.7105 90.6041 29.862 89.6647C30.0892 88.2102 29.7408 87.1041 28.8165 86.3466C27.9074 85.589 26.6802 85.2102 25.1347 85.2102H19.7711L18.3165 94.1193ZM52.6847 121.847H39.0483L62.1392 75.3011H79.412L87.0483 121.847H73.412L68.8665 88.1193H68.5029L52.6847 121.847ZM53.2302 103.483H78.8665L77.2302 112.937H51.5938L53.2302 103.483ZM87.1836 85.4829L88.9108 75.3011H129.365L127.638 85.4829H113.638L107.638 121.847H95.1836L101.184 85.4829H87.1836ZM127.921 85.4829L129.648 75.3011H170.103L168.376 85.4829H154.376L148.376 121.847H135.921L141.921 85.4829H127.921ZM163.931 121.847L171.659 75.3011H184.295L178.295 111.665H197.113L195.386 121.847H163.931ZM197.294 121.847L205.021 75.3011H238.567L236.839 85.4829H215.93L214.657 93.4829H233.839L232.112 103.665H212.93L211.657 111.665H232.476L230.748 121.847H197.294Z" fill="black"/>
<rect x="110.437" y="75.3381" width="65.9297" height="10.1474" fill="black"/>
</svg>
